<?xml version="1.0" standalone="no"?><!DOCTYPE svg PUBLIC "-//W3C//DTD SVG 1.1//EN" "http://www.w3.org/Graphics/SVG/1.1/DTD/svg11.dtd"><svg t="1780907877759" class="icon" viewBox="0 0 1024 1024" version="1.1" xmlns="http://www.w3.org/2000/svg" p-id="7477" xmlns:xlink="http://www.w3.org/1999/xlink" width="200" height="200"><path d="M464.352 431.712c-89.888-4.32-152.352 27.712-187.424 96.16-52.608 102.624-9.152 270.592 166.4 270.592 175.488 0 180.576-169.6 180.576-187.36v-198.72c37.536 23.808 69.184 38.112 94.976 42.976 25.76 4.832 42.112 6.976 49.12 6.432v-98.88c-23.84-2.848-44.448-8.32-61.824-16.384-26.08-12.16-77.76-45.76-77.76-95.04V213.344h-108.672c-0.32 241.408-0.32 374.016 0 397.76 0.48 35.616-27.168 85.44-83.2 85.44-56.032 0-83.68-49.76-83.68-81.92 0-19.648 6.752-48.128 34.656-69.248 16.576-12.512 39.552-17.504 76.832-17.504V431.68z" fill="#000000" p-id="7479"></path></svg>
