<?xml version="1.0" standalone="no"?><!DOCTYPE svg PUBLIC "-//W3C//DTD SVG 1.1//EN" "http://www.w3.org/Graphics/SVG/1.1/DTD/svg11.dtd"><svg t="1780036596262" class="icon" viewBox="0 0 1024 1024" version="1.1" xmlns="http://www.w3.org/2000/svg" p-id="8453" xmlns:xlink="http://www.w3.org/1999/xlink" width="200" height="200"><path d="M777.331765 775.955653c1.032085-0.516042 1.892155-0.688056 2.752226-1.032085 0.688056-0.172014 1.548127-0.344028 2.752226-0.344028 1.548127 0 3.268268 0.516042 5.332437 1.376113" fill="#272636" p-id="8454"></path><path d="M235.487317 775.955653c-3.78431 2.064169-7.396607 6.192508-10.664875 12.385016-3.268268 6.192508-6.192508 13.933143-8.600706 23.221905-2.408198 9.288762-4.300353 19.609609-5.676466 31.478582-1.376113 11.69696-2.064169 24.25399-2.064169 37.499076 0 8.600706 0.344028 16.685369 1.032085 24.598018s1.548127 15.309256 2.580212 22.533848l57.108685 0c2.580212-14.105157 3.78431-29.930455 3.78431-47.131866 0-13.245087-0.688056-25.802117-2.064169-37.499076-1.376113-11.69696-3.268268-22.18982-5.676466-31.478582-2.408198-9.288762-5.332437-17.029397-8.600706-23.221905s-6.880564-10.492861-10.664875-12.385016" fill="#575B66" p-id="8455"></path><path d="M777.331765 775.955653c-3.78431 2.064169-7.224593 6.192508-10.492861 12.385016s-6.020494 13.933143-8.428691 23.221905-4.300353 19.609609-5.504452 31.478582c-1.204099 11.69696-1.892155 24.25399-1.892155 37.499076 0 8.600706 0.172014 16.685369 0.860071 24.598018s1.376113 15.309256 2.408198 22.533848l57.108685 0c1.032085-7.224593 1.892155-14.621199 2.580212-22.533848s1.032085-15.997312 1.032085-24.598018c0-13.245087-0.688056-25.802117-2.064169-37.499076-1.376113-11.69696-3.268268-22.18982-5.676466-31.478582-2.408198-9.288762-5.332437-17.029397-8.428691-23.221905-3.096254-6.192508-6.70855-10.492861-10.492861-12.385016" fill="#575B66" p-id="8456"></path><path d="M245.980178 775.955653c12.901058 0.688056 25.11406 3.956325 36.466991 9.63279s21.32975 13.245087 29.758441 22.705863c8.428691 9.460776 14.965228 20.297665 19.781623 32.682681 4.816395 12.385016 7.224593 25.458088 7.224593 39.391231 0 17.201411-3.78431 33.198723-11.180917 47.475895l367.078112 0c-7.224593-14.621199-10.836889-30.446498-10.836889-47.475895 0-13.933143 2.408198-27.006215 7.224593-39.391231 4.816395-12.385016 11.524945-23.221905 19.781623-32.682681 8.428691-9.460776 18.233496-17.029397 29.586427-22.705863 11.352931-5.676466 23.393919-8.944734 36.294977-9.63279L245.980178 775.955653zM539.952293 871.595498l-10.148833 15.48127c-2.408198 3.096254-4.472367 6.192508-6.70855 9.460776-2.064169 3.096254-3.956325 5.84848-5.332437 8.084663-0.344028 0.516042-1.032085 1.032085-1.720141 1.548127-0.688056 0.516042-2.236183 0.860071-4.300353 0.860071s-3.440282-0.344028-4.128339-0.860071c-0.688056-0.516042-1.204099-1.032085-1.548127-1.548127-1.720141-2.236183-3.612296-4.988409-5.676466-8.084663l-6.364522-9.460776-10.492861-15.48127c-2.580212-3.612296-2.752226-6.70855-0.860071-9.460776 2.064169-2.752226 5.676466-3.956325 11.008903-3.956325l36.466991 0c5.504452 0 9.288762 1.376113 11.180917 3.956325C543.048547 864.886948 542.704519 867.983202 539.952293 871.595498z" fill="#575B66" p-id="8457"></path><path d="M788.168654 775.955653c12.901058 0.688056 24.942046 3.956325 36.294977 9.63279s21.157736 13.245087 29.758441 22.705863c8.428691 9.460776 15.137242 20.297665 19.953637 32.682681 4.816395 12.385016 7.224593 25.458088 7.224593 39.391231 0 8.600706-1.032085 16.685369-2.92424 24.770032s-4.644381 15.48127-8.256677 22.705863l87.03914 0 0-115.765496-0.344028 0 0-72.073912L956.914497 739.660675l0-3.096254c-0.172014-10.148833-0.860071-21.157736-1.892155-33.370737-1.032085-12.040988-2.92424-23.909961-5.84848-35.434907-2.92424-11.524945-6.70855-22.017806-11.69696-31.478582-4.988409-9.460776-11.352931-16.685369-19.26558-21.32975-8.944734-5.676466-17.545439-7.740635-25.974131-6.364522-8.428691 1.376113-16.169326 4.128339-23.049891 8.256677-6.880564 4.128339-12.729044 8.77272-17.545439 13.761129-4.816395 4.988409-8.084663 8.600706-9.63279 10.664875-11.868974 14.105157-24.081975 28.726356-36.639006 43.691584s-26.490173 28.554342-41.627415 40.939358-31.82261 22.533848-50.22812 30.446498c-18.233496 7.912649-39.047203 11.868974-62.097094 11.868974l-22.18982 0-117.485637 0-0.344028 0L393.912313 768.215018l-21.845792 0c-23.221905 0-44.035612-3.956325-62.441122-11.868974-18.233496-7.912649-34.918864-18.061482-50.056106-30.446498s-28.898371-25.974131-41.627415-40.939358c-12.729044-14.965228-24.942046-29.414413-36.81102-43.691584-1.032085-1.376113-2.92424-3.440282-5.332437-6.192508-2.580212-2.752226-5.676466-5.84848-9.288762-9.116748-3.612296-3.268268-7.740635-6.364522-12.385016-9.288762-4.644381-2.92424-9.63279-5.160423-14.965228-6.536536-5.332437-1.548127-10.836889-1.892155-16.685369-1.376113s-11.69696 2.580212-17.545439 6.192508c-7.912649 4.644381-14.105157 11.868974-19.093566 21.32975-4.816395 9.460776-8.77272 19.953637-11.524945 31.478582-2.92424 11.524945-4.816395 23.221905-5.84848 35.434907-1.032085 12.040988-1.720141 23.221905-1.892155 33.370737-0.172014 0.516042-0.344028 1.376113-0.344028 3.096254l0 0.344028 0 72.073912 0 115.765496 86.695112 0c-3.440282-7.224593-6.020494-14.793214-7.912649-22.705863-1.892155-7.912649-2.92424-16.169326-2.92424-24.770032 0-13.933143 2.408198-27.006215 7.224593-39.391231 4.816395-12.385016 11.524945-23.221905 19.953637-32.682681 8.428691-9.460776 18.40551-17.029397 29.758441-22.705863 11.352931-5.676466 23.393919-8.944734 36.294977-9.63279" fill="#575B66" p-id="8458"></path><path d="M235.487317 775.955653c1.032085-0.516042 2.064169-0.688056 2.92424-1.032085 0.860071-0.172014 1.720141-0.344028 2.580212-0.344028 1.032085 0 1.892155 0.172014 2.752226 0.344028 0.688056 0.172014 1.548127 0.516042 2.408198 1.032085" fill="#272636" p-id="8459"></path><path d="M928.016126 575.903242c-17.717453 0-31.994625-14.277171-31.994625-31.994625L896.021502 192.139761c0-17.373425-14.621199-32.166639-31.994625-32.166639L159.973123 159.973123c-17.545439 0-31.994625 14.449185-31.994625 32.166639l0 351.94087c0 17.717453-14.277171 31.994625-31.994625 31.994625s-31.994625-14.277171-31.994625-31.994625L63.989249 192.139761c0-52.980346 43.003528-96.155888 95.983874-96.155888l704.053754 0c52.980346 0 95.983874 43.175542 95.983874 96.155888l0 351.94087C960.010751 561.626071 945.73358 575.903242 928.016126 575.903242z" fill="#575B66" p-id="8460"></path><path d="M511.913993 480.091382c-123.506131 0-223.962372-100.456241-223.962372-223.962372 0-17.717453 14.277171-31.994625 31.994625-31.994625s31.994625 14.277171 31.994625 31.994625c0 88.243239 71.729884 159.973123 159.973123 159.973123s159.973123-71.729884 159.973123-159.973123c0-17.717453 14.277171-31.994625 31.994625-31.994625s31.994625 14.277171 31.994625 31.994625C736.048379 379.635142 635.420124 480.091382 511.913993 480.091382z" fill="#575B66" p-id="8461"></path></svg>