<?xml version="1.0" standalone="no"?><!DOCTYPE svg PUBLIC "-//W3C//DTD SVG 1.1//EN" "http://www.w3.org/Graphics/SVG/1.1/DTD/svg11.dtd"><svg t="1780036580775" class="icon" viewBox="0 0 1024 1024" version="1.1" xmlns="http://www.w3.org/2000/svg" p-id="7249" xmlns:xlink="http://www.w3.org/1999/xlink" width="200" height="200"><path d="M838.848 64c26.88 0 51.456 9.12 71.68 24.192 9.856 6.976 18.304 15.776 25.28 25.28 14.72 20.032 24.192 44.768 24.192 71.84v653.568c0 26.88-9.152 51.424-24.192 71.68a112.608 112.608 0 0 1-25.28 25.28 118.72 118.72 0 0 1-71.68 24.16H185.152c-26.88 0-51.456-9.152-71.68-24.192a112.608 112.608 0 0 1-25.28-25.28A118.656 118.656 0 0 1 64 838.912V185.312c0-27.072 9.152-51.808 23.84-71.872a112.64 112.64 0 0 1 25.28-25.28A120.544 120.544 0 0 1 185.088 64z m-196.736 335.232h-121.344v51.392h33.536v164.672h-53.76l-13.376 26.464-4.256 8.384-7.84 15.488h188.352v-50.176H608.96V449.92h33.152v-50.688z m-167.936 212.8h-83.68c-7.68 15.072-16.48 32.288-27.04 53.44 27.936 0 52.48 0.16 76.864-0.192 3.2-0.192 7.68-2.688 9.152-5.376 8.064-14.528 15.392-29.568 24.704-47.84z m-214.144-233.408h-52.48v242.752H172.608l33.312 44.064h31.936c2.208-0.096 22.144-1.792 21.664-32.416 0.32-79.552 0.512-174.848 0.512-254.4z m508.224 0h-52.48v21.504h-34.432v50.688h33.888v45.312h-51.104v53.6h52.512v115.008h51.968v-115.744c25.6 0 49.12-0.352 72.416 0.192 11.648 0.16 17.92 7.52 18.24 18.976 0.16 3.648 0.224 9.12 0.256 15.168v9.376c-0.032 14.304-0.224 28.48-0.224 28.48l-52.512-0.16 20.256 43.52h49.344c5.76-0.128 36.16-2.528 36.16-36.896v-91.744c0-30.816-18.848-39.776-63.104-39.584v-9.824c-0.064-15.904-0.224-40.96-0.352-49.824-0.16-33.888-31.712-36.384-37.76-36.544H768.64l-0.352-21.504zM170.08 452.064H114.88c4.48 69.344-15.584 130.624-15.584 132.768 10.24 17.92 20.256 35.84 31.36 55.168 36.672-51.392 39.328-159.168 39.424-183.136v-4.8z m179.2-0.32H297.504c-0.352 97.6 13.248 163.36 38.336 185.408 10.944-31.712 26.176-65.408 26.176-65.408s-16.672-68.608-12.736-120z m133.696-73.12h-52.512c-15.232 31.168-31.36 62.336-45.696 94.048-8.96 20.064-1.6 29.92 20.064 30.816 7.52 0.192 15.04 0 25.28 0-3.424 7.872-5.92 13.088-8.256 18.464-6.976 15.392-14.496 30.624-20.8 46.208-5.184 12.544 0 22.752 13.28 24.192 18.464 1.984 37.12 1.44 55.552 1.44 1.984 0 5.024-2.336 6.08-4.32 6.656-12.352 12.928-24.896 19.904-38.688-4.832-0.544-7.36-0.896-10.048-0.896-25.088-0.544-25.088-0.704-13.76-23.296l4.288-8.768c10.752-21.696 21.504-43.36 33.664-67.712-22.72 1.248-42.112 2.304-63.424 3.584 9.152-24.384 23.488-49.472 36.384-75.072z m320.768 72v45.504H768.96l-0.32-45.504h35.104z m106.08-46.912c-12.16-11.648-25.088-7.904-34.4-1.984a28.032 28.032 0 0 0-13.088 23.84v26.688h27.968c24.352 0 37.632-29.408 20.8-47.136-0.384-0.512-0.736-1.056-1.28-1.408z" fill="#333333" p-id="7250"></path></svg>